<svg id="visual" viewBox="0 0 900 600" width="900" height="600" xmlns="http://www.w3.org/2000/svg" xmlns:xlink="http://www.w3.org/1999/xlink" version="1.1"><path d="M0 103L13.7 105C27.3 107 54.7 111 82 139C109.3 167 136.7 219 163.8 223C191 227 218 183 245.2 161C272.3 139 299.7 139 327 143C354.3 147 381.7 155 409 157C436.3 159 463.7 155 491 170C518.3 185 545.7 219 573 233C600.3 247 627.7 241 654.8 228C682 215 709 195 736.2 195C763.3 195 790.7 215 818 205C845.3 195 872.7 155 886.3 135L900 115L900 0L886.3 0C872.7 0 845.3 0 818 0C790.7 0 763.3 0 736.2 0C709 0 682 0 654.8 0C627.7 0 600.3 0 573 0C545.7 0 518.3 0 491 0C463.7 0 436.3 0 409 0C381.7 0 354.3 0 327 0C299.7 0 272.3 0 245.2 0C218 0 191 0 163.8 0C136.7 0 109.3 0 82 0C54.7 0 27.3 0 13.7 0L0 0Z" fill="#6198ff"></path><path d="M0 331L13.7 321C27.3 311 54.7 291 82 301C109.3 311 136.7 351 163.8 360C191 369 218 347 245.2 333C272.3 319 299.7 313 327 325C354.3 337 381.7 367 409 372C436.3 377 463.7 357 491 350C518.3 343 545.7 349 573 351C600.3 353 627.7 351 654.8 342C682 333 709 317 736.2 321C763.3 325 790.7 349 818 349C845.3 349 872.7 325 886.3 313L900 301L900 113L886.3 133C872.7 153 845.3 193 818 203C790.7 213 763.3 193 736.2 193C709 193 682 213 654.8 226C627.7 239 600.3 245 573 231C545.7 217 518.3 183 491 168C463.7 153 436.3 157 409 155C381.7 153 354.3 145 327 141C299.7 137 272.3 137 245.2 159C218 181 191 225 163.8 221C136.7 217 109.3 165 82 137C54.7 109 27.3 105 13.7 103L0 101Z" fill="#3c80ff"></path><path d="M0 415L13.7 408C27.3 401 54.7 387 82 395C109.3 403 136.7 433 163.8 434C191 435 218 407 245.2 397C272.3 387 299.7 395 327 414C354.3 433 381.7 463 409 472C436.3 481 463.7 469 491 463C518.3 457 545.7 457 573 458C600.3 459 627.7 461 654.8 453C682 445 709 427 736.2 421C763.3 415 790.7 421 818 423C845.3 425 872.7 423 886.3 422L900 421L900 299L886.3 311C872.7 323 845.3 347 818 347C790.7 347 763.3 323 736.2 319C709 315 682 331 654.8 340C627.7 349 600.3 351 573 349C545.7 347 518.3 341 491 348C463.7 355 436.3 375 409 370C381.7 365 354.3 335 327 323C299.7 311 272.3 317 245.2 331C218 345 191 367 163.8 358C136.7 349 109.3 309 82 299C54.7 289 27.3 309 13.7 319L0 329Z" fill="#0066ff"></path><path d="M0 511L13.7 510C27.3 509 54.7 507 82 512C109.3 517 136.7 529 163.8 528C191 527 218 513 245.2 512C272.3 511 299.7 523 327 533C354.3 543 381.7 551 409 552C436.3 553 463.7 547 491 547C518.3 547 545.7 553 573 549C600.3 545 627.7 531 654.8 530C682 529 709 541 736.2 540C763.3 539 790.7 525 818 523C845.3 521 872.7 531 886.3 536L900 541L900 419L886.3 420C872.7 421 845.3 423 818 421C790.7 419 763.3 413 736.2 419C709 425 682 443 654.8 451C627.7 459 600.3 457 573 456C545.7 455 518.3 455 491 461C463.7 467 436.3 479 409 470C381.7 461 354.3 431 327 412C299.7 393 272.3 385 245.2 395C218 405 191 433 163.8 432C136.7 431 109.3 401 82 393C54.7 385 27.3 399 13.7 406L0 413Z" fill="#0059dd"></path><path d="M0 601L13.7 601C27.3 601 54.7 601 82 601C109.3 601 136.7 601 163.8 601C191 601 218 601 245.2 601C272.3 601 299.7 601 327 601C354.3 601 381.7 601 409 601C436.3 601 463.7 601 491 601C518.3 601 545.7 601 573 601C600.3 601 627.7 601 654.8 601C682 601 709 601 736.2 601C763.3 601 790.7 601 818 601C845.3 601 872.7 601 886.3 601L900 601L900 539L886.3 534C872.7 529 845.3 519 818 521C790.7 523 763.3 537 736.2 538C709 539 682 527 654.8 528C627.7 529 600.3 543 573 547C545.7 551 518.3 545 491 545C463.7 545 436.3 551 409 550C381.7 549 354.3 541 327 531C299.7 521 272.3 509 245.2 510C218 511 191 525 163.8 526C136.7 527 109.3 515 82 510C54.7 505 27.3 507 13.7 508L0 509Z" fill="#004cbb"></path></svg>